<svg width="18" height="18" viewBox="0 0 18 18" fill="none" xmlns="http://www.w3.org/2000/svg">
<circle cx="9" cy="9" r="9" fill="white"/>
<path d="M5.19611 5.644C5.30811 5.332 5.43211 5.096 5.56811 4.936C5.70411 4.768 5.85211 4.652 6.01211 4.588C6.18011 4.524 6.38811 4.492 6.63611 4.492C6.87611 4.492 7.07611 4.524 7.23611 4.588C7.40411 4.652 7.55611 4.768 7.69211 4.936C7.82811 5.096 7.95211 5.332 8.06411 5.644L10.7401 13H8.95211L6.63611 6.088L4.30811 13H2.50811L5.19611 5.644ZM4.17611 9.688H9.07211V11.14H4.17611V9.688ZM11.8579 4.6H13.5619V13H11.8579V4.6ZM11.8579 4.6H13.5619V6.052H11.8579V4.6ZM11.8579 11.548H13.5619V13H11.8579V11.548Z" fill="#2E2C38"/>
</svg>
