<svg width="248" height="540" viewBox="0 0 248 540" fill="none" xmlns="http://www.w3.org/2000/svg">
<path d="M87.8812 449L70.5664 364H177.27L159.955 449H87.8812Z" fill="#EC1A75"/>
<path d="M69.5478 359L52.0293 273H195.807L178.289 359H69.5478Z" fill="#EC1A75"/>
<path d="M50.8066 267L33.2881 181H214.547L197.029 267H50.8066Z" fill="#EC1A75"/>
<path d="M32.2699 176L14.9551 91L232.881 91L215.566 176H32.2699Z" fill="#EC1A75"/>
<path d="M233.899 86H13.9363L3.03812 32.5H244.797L233.899 86Z" fill="#EC1A75"/>
<path d="M5.01277 42.1937C6.53086 49.6461 13.0853 55 20.6908 55H227.145C234.75 55 241.305 49.6461 242.823 42.1937L247.508 19.1937C249.528 9.27734 241.95 0 231.83 0H16.0056C5.88562 0 -1.69241 9.27734 0.327585 19.1937L5.01277 42.1937Z" fill="#EC1A75"/>
<path d="M101.122 514L88.8994 454H158.936L146.714 514H101.122Z" fill="#EC1A75"/>
<path d="M99.7351 507.194C97.7151 497.277 105.293 488 115.413 488H132.423C142.543 488 150.121 497.277 148.101 507.194L144.027 527.194C142.509 534.646 135.954 540 128.349 540H119.487C111.882 540 105.327 534.646 103.809 527.194L99.7351 507.194Z" fill="#EC1A75"/>
<path d="M87.8812 449L70.5664 364H177.27L159.955 449H87.8812Z" fill="white" fill-opacity="0.6"/>
<path d="M69.5478 359L52.0293 273H195.807L178.289 359H69.5478Z" fill="white" fill-opacity="0.45"/>
<path d="M50.8066 267L33.2881 181H214.547L197.029 267H50.8066Z" fill="white" fill-opacity="0.3"/>
<path d="M32.2699 176L14.9551 91L232.881 91L215.566 176H32.2699Z" fill="white" fill-opacity="0.15"/>
<g opacity="0.75">
<path d="M101.64 514L89.418 454H159.455L147.233 514H101.64Z" fill="white"/>
<path d="M100.254 507.194C98.2337 497.277 105.812 488 115.932 488H132.941C143.061 488 150.639 497.277 148.619 507.194L144.545 527.194C143.027 534.646 136.473 540 128.867 540H120.006C112.4 540 105.846 534.646 104.328 527.194L100.254 507.194Z" fill="white"/>
</g>
</svg>
