<svg width="54" height="54" viewBox="0 0 54 54" fill="none" xmlns="http://www.w3.org/2000/svg">
<path fill-rule="evenodd" clip-rule="evenodd" d="M37.8739 25.8072C38.2905 25.599 38.7915 25.6201 39.1896 25.8704L49.9896 32.6168C50.3139 32.8171 50.538 33.1491 50.604 33.5233L53.979 52.4132C54.0713 52.9323 53.8551 53.4568 53.4226 53.7572C52.9876 54.0576 52.4207 54.0813 51.9672 53.8125L41.1091 47.4299L27.5801 53.8679C27.2136 54.0445 26.7864 54.0445 26.4199 53.8679L12.8908 47.4299L2.03544 53.8125C1.57928 54.0813 1.0124 54.0576 0.579998 53.7572C0.144939 53.4568 -0.0712705 52.9323 0.0210157 52.4132L3.39602 33.5233L3.42766 33.3863C3.51995 33.0674 3.72562 32.7934 4.01038 32.6168L14.8104 25.8705L14.8921 25.823C15.3035 25.6043 15.8018 25.6122 16.2105 25.852L26.9997 32.1951L37.7916 25.852L37.8739 25.8072ZM14.3015 45.1132L25.6496 50.513V34.5322L16.5769 29.1957L14.3015 45.1132ZM28.3496 34.5322V50.513L39.6977 45.1133L37.4222 29.1959L28.3496 34.5322ZM5.94765 34.5876L3.19493 50.0017L11.5798 45.071L13.7762 29.6967L5.94765 34.5876ZM42.4187 45.0708L50.8035 50.0014L48.0508 34.5873L40.2221 29.6962L42.4187 45.0708Z" fill="white"/>
<path fill-rule="evenodd" clip-rule="evenodd" d="M26.9986 4.70776C31.0987 4.70776 34.4236 8.03132 34.4236 12.1297C34.4236 16.2281 31.0987 19.5517 26.9986 19.5517C22.8985 19.5517 19.5736 16.2281 19.5736 12.1297C19.5736 8.03132 22.8985 4.70776 26.9986 4.70776ZM26.9986 7.40666C24.3883 7.40666 22.2736 9.52044 22.2736 12.1297C22.2736 14.739 24.3883 16.8528 26.9986 16.8528C29.609 16.8528 31.7236 14.739 31.7236 12.1297C31.7236 9.52044 29.609 7.40666 26.9986 7.40666Z" fill="white"/>
<path fill-rule="evenodd" clip-rule="evenodd" d="M26.9992 0C33.6491 0 39.1493 5.15417 39.1493 11.6445C39.1493 13.8185 38.3688 16.0188 37.3062 18.032C36.233 20.0557 34.8224 21.9899 33.4354 23.6499C32.0485 25.3153 30.6616 26.7382 29.628 27.7422C29.1086 28.2455 28.6735 28.646 28.3677 28.9227C28.2147 29.0597 28.0961 29.1677 28.0117 29.2415C27.9695 29.2784 27.9379 29.3074 27.9141 29.3259C27.9036 29.3364 27.8931 29.3417 27.8878 29.3496C27.8851 29.3522 27.8825 29.3522 27.8799 29.3548L27.8772 29.3575C27.371 29.7896 26.6274 29.7896 26.1211 29.3575L26.1185 29.3548C26.1159 29.3522 26.1132 29.3522 26.1106 29.3496C26.1053 29.3417 26.0948 29.3364 26.0842 29.3259C26.0605 29.3074 26.0289 29.2784 25.9867 29.2415C25.9023 29.1677 25.7836 29.0597 25.6307 28.9227C25.3249 28.646 24.8898 28.2455 24.373 27.7422C23.3367 26.7382 21.9499 25.3179 20.5629 23.6499C19.176 21.9899 17.7654 20.0557 16.6922 18.032C15.6296 16.0188 14.8491 13.8185 14.8491 11.6445C14.8491 5.15437 20.3494 0 26.9992 0ZM26.9992 2.69831C21.7205 2.69831 17.5492 6.76418 17.5492 11.6445C17.5492 13.2019 18.1187 14.9542 19.0811 16.7698C20.033 18.5722 21.3223 20.3456 22.6354 21.924C23.9485 23.4971 25.2616 24.8462 26.253 25.8054C26.5299 26.0742 26.7804 26.3113 26.9992 26.5142C27.2181 26.3113 27.4686 26.0742 27.7481 25.8054C28.7368 24.8462 30.05 23.4971 31.363 21.924C32.6761 20.3456 33.9655 18.5721 34.9173 16.7698C35.8798 14.9542 36.4493 13.2019 36.4493 11.6445C36.4493 6.76439 32.2779 2.69831 26.9992 2.69831Z" fill="white"/>
</svg>
